<svg width="860" height="200" viewBox="0 0 860 200" xmlns="http://www.w3.org/2000/svg">
  <defs>
    <linearGradient id="border" x1="0" y1="0" x2="860" y2="0"><stop stop-color="#22d3ee"/><stop offset="0.45" stop-color="#8b5cf6"/><stop offset="0.75" stop-color="#ec4899"/><stop offset="1" stop-color="#22d3ee"/></linearGradient>
    <linearGradient id="beam" x1="-80" y1="0" x2="80" y2="0" gradientUnits="userSpaceOnUse"><stop stop-color="#22d3ee" stop-opacity="0"/><stop offset="0.22" stop-color="#22d3ee"/><stop offset="0.55" stop-color="#8b5cf6"/><stop offset="0.82" stop-color="#ec4899"/><stop offset="1" stop-color="#ec4899" stop-opacity="0"/></linearGradient>
    <radialGradient id="g1" cx="18%" cy="82%" r="50%"><stop stop-color="#7c3aed" stop-opacity=".34"/><stop offset="1" stop-opacity="0"/></radialGradient>
    <radialGradient id="g2" cx="50%" cy="88%" r="58%"><stop stop-color="#2563eb" stop-opacity=".45"/><stop offset="1" stop-opacity="0"/></radialGradient>
    <radialGradient id="g3" cx="84%" cy="80%" r="48%"><stop stop-color="#f97316" stop-opacity=".25"/><stop offset="1" stop-opacity="0"/></radialGradient>
    <filter id="glow"><feGaussianBlur stdDeviation="4" result="b"/><feMerge><feMergeNode in="b"/><feMergeNode in="SourceGraphic"/></feMerge></filter>
    <style>.mono{font-family:JetBrains Mono,Consolas,monospace}.num{font-size:38px;font-weight:900;letter-spacing:1px}.label{font-size:13px;letter-spacing:7px;fill:#94a3b8}.sep{stroke:#1f2937;stroke-width:1}</style>
  </defs>
  <rect x="1" y="1" width="858" height="198" rx="20" fill="#05060b"/>
  <rect x="1" y="1" width="858" height="198" rx="20" fill="url(#g1)"/><rect x="1" y="1" width="858" height="198" rx="20" fill="url(#g2)"/><rect x="1" y="1" width="858" height="198" rx="20" fill="url(#g3)"/>
  <rect x="2" y="2" width="856" height="196" rx="19" fill="none" stroke="#1f2937"/>
  <rect x="2" y="2" width="856" height="196" rx="19" fill="none" stroke="url(#border)" stroke-width="1.5" opacity=".32"/>
  <line class="sep" x1="286" y1="42" x2="286" y2="158"/><line class="sep" x1="573" y1="42" x2="573" y2="158"/>
  <g text-anchor="middle" class="mono"><text x="143" y="91" class="num" fill="#a78bfa">9</text><text x="143" y="122" class="label">REPOS</text><text x="430" y="91" class="num" fill="#60a5fa">1</text><text x="430" y="122" class="label">STAR</text><text x="716" y="91" class="num" fill="#fbbf24">61</text><text x="716" y="122" class="label">COMMITS</text></g>
</svg>